{"title":"Fake Taxi - Valerie","uid":9033143,"size":1047244730,"categoryP":"porn","categoryS":"movie_clips","magnet":"?xt=urn:btih:de491420c783655d94b552cf71dd533436b7593f&amp;dn=Fake+Taxi+-+Valerie&amp;tr=udp%3A%2F%2Ftracker.openbittorrent.com%3A80&amp;tr=udp%3A%2F%2Fopen.demonii.com%3A1337&amp;tr=udp%3A%2F%2Ftracker.coppersurfer.tk%3A6969&amp;tr=udp%3A%2F%2Fexodus.desync.com%3A6969","seeders":0,"leechers":1,"uploader":null,"files":10,"time":1381458810,"description":" &lt;a href=&quot;http://www.hostpornpics.net/pornmg/share.php?id=5514_525746E4&quot; rel=&quot;nofollow&quot; target=&quot;_NEW&quot;&gt;http://www.hostpornpics.net/pornmg/share.php?id=5514_525746E4&lt;/a&gt;\n\nWhat bad luck of all the people to pick up, I get my ex-girlfriend. Although she was a right dirty bitch when we were going out and she loved being fucked in the arse. And still seeing her new boyfriend I had to try and get back into her knickers and back up her arse hole, and then just wait till he finds this on the internet. Hello, remember me?\n\nFormat : MPEG-4\nFormat profile : QuickTime\nCodec ID : qt\nFile size : 996 MiB\nDuration : 33mn 40s\nOverall bit rate : 4 134 Kbps\nWriting application : Lavf54.29.104\n\nVideo\nID : 1\nFormat : AVC\nFormat/Info : Advanced Video Codec\nFormat profile : &lt;a class=&quot;__cf_email__&quot; href=&quot;/cdn-cgi/l/email-protection&quot; data-cfemail=&quot;450d2c222d0509766b74&quot;&gt;[email&amp;#160;protected]&lt;/a&gt;&lt;script cf-hash='f9e31' type=&quot;text/javascript&quot;&gt;\n/* &lt;![CDATA[ */!function(){try{var t=&quot;currentScript&quot;in document?document.currentScript:function(){for(var t=document.getElementsByTagName(&quot;script&quot;),e=t.length;e--;)if(t[e].getAttribute(&quot;cf-hash&quot;))return t[e]}();if(t&amp;&amp;t.previousSibling){var e,r,n,i,c=t.previousSibling,a=c.getAttribute(&quot;data-cfemail&quot;);if(a){for(e=&quot;&quot;,r=parseInt(a.substr(0,2),16),n=2;a.length-n;n+=2)i=parseInt(a.substr(n,2),16)^r,e+=String.fromCharCode(i);e=document.createTextNode(e),c.parentNode.replaceChild(e,c)}}}catch(u){}}();/* ]]&gt; */&lt;/script&gt;\nFormat settings, CABAC : Yes\nFormat settings, ReFrames : 4 frames\nCodec ID : avc1\nCodec ID/Info : Advanced Video Coding\nDuration : 33mn 40s\nBit rate : 4 000 Kbps\nWidth : 1 280 pixels\nHeight : 720 pixels\nDisplay aspect ratio : 16:9\nFrame rate mode : Constant\nFrame rate : 24.000 fps\nColor space : YUV\nChroma subsampling : 4:2:0\nBit depth : 8 bits\nScan type : Progressive\nBits/(Pixel*Frame) : 0.181\nStream size : 963 MiB (97%)\nWriting library : x264 core 120\n\nAudio\nID : 2\nFormat : AAC\nFormat/Info : Advanced Audio Codec\nFormat profile : LC\nCodec ID : 40\nDuration : 33mn 40s\nBit rate mode : Constant\nBit rate : 128 Kbps\nChannel(s) : 2 channels\nChannel positions : Front: L R\nSampling rate : 44.1 KHz\nCompression mode : Lossy\nDelay relative to video : 83ms\nStream size : 30.8 MiB (3%)\nLanguage : English\n\nMenu\nID : 3\nDuration : 33mn 40s\nLanguage : English","torrent":{"xt":"urn:btih:de491420c783655d94b552cf71dd533436b7593f","amp;dn":"Fake+Taxi+-+Valerie","amp;tr":["udp%3A%2F%2Ftracker.openbittorrent.com%3A80","udp%3A%2F%2Fopen.demonii.com%3A1337","udp%3A%2F%2Ftracker.coppersurfer.tk%3A6969","udp%3A%2F%2Fexodus.desync.com%3A6969"],"infoHash":"de491420c783655d94b552cf71dd533436b7593f","infoHashBuffer":{"type":"Buffer","data":[222,73,20,32,199,131,101,93,148,181,82,207,113,221,83,52,54,183,89,63]},"announce":[],"urlList":[]}}